# xmcd
#
# Track frame offsets:
#	150
#	17210
#	32919
#	50528
#	66852
#	84474
#	101422
#	122043
#	140826
#	156468
#	172249
#	188026
#
# Disc length: 2747 seconds
#
# Revision: 0
# Processed by: cddbd v1.5.2PL0 Copyright (c) Steve Scherf et al.
# Submitted via: audiograbber 1.83.01
#
DISCID=ad0ab90c
DTITLE=JonesTM - HC200819
DYEAR=2008
DGENRE=Country
TTITLE0=Craig Morgan - Love Remembers
TTITLE1=Ashton Shepherd - Sounds So Good
TTITLE2=Cowboy Crush - Tougher Than A Man
TTITLE3=Rissi Palmer - No Air [Single Edit Version 1]
TTITLE4=John Michael Montgomery - If You Ever Went Away [Radio Edit]
TTITLE5=Cherish - Amnesia
TTITLE6=April Hill - I Wanna Be Free
TTITLE7=Jill Scott - Whenever You're Around
TTITLE8=Mick Hucknall - Farther Up The Road [Album Version] Farther Up The Road
TTITLE8=[Album Version]
TTITLE9=Tom Scott And Special Guests - Jive Samba [Radio Remix]
TTITLE10=Tom Scott And Special Guests - Jive Samba [Radio Edit]
TTITLE11=Joey Sommerville - Like You Mean It [Short Version]
EXTD=
EXTT0=
EXTT1=
EXTT2=
EXTT3=
EXTT4=
EXTT5=
EXTT6=
EXTT7=
EXTT8=
EXTT9=
EXTT10=
EXTT11=
PLAYORDER=
